name C:\Users\u0101727\Documents\MyRepositories\paper-ad\predictivesimulations_2d/Results/PredSim_2D/IK_c11.mot
datacolumns 11
datarows 51
range 1.27596643 1.75565306
endheader
time	pelvis_tilt	pelvis_tx	pelvis_ty	hip_flexion_l	hip_flexion_r	knee_angle_l	knee_angle_r	ankle_angle_l	ankle_angle_r	lumbar_extension	
          1.27596643	        -15.14439716	          1.69371540	          0.90059035	         33.23228832	         10.41407422	        -37.56558235	         -7.29768910	         15.70308557	         11.30246421	          9.47340797	
          1.28556016	        -15.14371363	          1.70570303	          0.89973223	         34.20071812	          9.63827523	        -36.09266220	         -7.34524962	         15.98892658	         11.31286575	          9.43353150	
          1.29515389	        -15.14410966	          1.71774614	          0.89881603	         35.10802593	          8.88010587	        -34.50308356	         -7.42849787	         16.19386745	         11.31106532	          9.39690429	
          1.30474763	        -15.14597619	          1.72985120	          0.89784061	         35.95073347	          8.13851918	        -32.80456988	         -7.54637888	         16.32702632	         11.30065500	          9.36383592	
          1.31434136	        -15.14963407	          1.74202636	          0.89680482	         36.72426112	          7.41317933	        -31.00859553	         -7.69920949	         16.39718467	         11.28244057	          9.33471184	
          1.32393509	        -15.15515130	          1.75428361	          0.89571132	         37.42191979	          6.70498035	        -29.14134890	         -7.89065830	         16.41248581	         11.25480593	          9.31012188	
          1.33352882	        -15.16255466	          1.76664122	          0.89457254	         38.03077987	          6.01594608	        -27.23704027	         -8.12695490	         16.38021719	         11.21171279	          9.29137013	
          1.34312256	        -15.17186370	          1.77912071	          0.89341022	         38.53504907	          5.34924144	        -25.32787776	         -8.41524036	         16.30677443	         11.14074013	          9.28017912	
          1.35271629	        -15.18275878	          1.79174088	          0.89224689	         38.92528540	          4.70928299	        -23.44172775	         -8.76400277	         16.19754752	         11.02559741	          9.27773745	
          1.36231002	        -15.19444392	          1.80451634	          0.89110050	         39.20134549	          4.10133553	        -21.60046663	         -9.18309637	         16.05666220	         10.84974947	          9.28445192	
          1.37190375	        -15.20570743	          1.81745994	          0.88998535	         39.37011880	          3.53067778	        -19.82574015	         -9.68282452	         15.88671652	         10.59892419	          9.30025110	
          1.38149749	        -15.21533002	          1.83058554	          0.88891360	         39.43882209	          3.00219347	        -18.13236469	        -10.27286558	         15.68890313	         10.26027898	          9.32522646	
          1.39109122	        -15.22216922	          1.84390760	          0.88789445	         39.41426856	          2.52032149	        -16.53210325	        -10.96179579	         15.46311534	          9.82166499	          9.35961726	
          1.40068495	        -15.22497139	          1.85744032	          0.88693314	         39.30405171	          2.08967898	        -15.04199817	        -11.75861399	         15.20806836	          9.27223210	          9.40356314	
          1.41027868	        -15.22247394	          1.87119809	          0.88603077	         39.11321247	          1.71578704	        -13.67660151	        -12.67361238	         14.92174367	          8.60100766	          9.45735693	
          1.41987242	        -15.21327274	          1.88519451	          0.88518302	         38.84653391	          1.40455542	        -12.45581404	        -13.71772003	         14.60125885	          7.79755461	          9.52125079	
          1.42946615	        -15.19581095	          1.89944133	          0.88437878	         38.50937584	          1.16163875	        -11.40843510	        -14.90113564	         14.24281415	          6.85436243	          9.59539510	
          1.43905988	        -15.16864812	          1.91394964	          0.88359894	         38.10206504	          0.99182191	        -10.56533501	        -16.23314604	         13.84204751	          5.77145882	          9.68038057	
          1.44865361	        -15.13059514	          1.92872771	          0.88281198	         37.61756282	          0.89802489	         -9.96016589	        -17.72672072	         13.39397290	          4.57120329	          9.77726903	
          1.45824735	        -15.08149847	          1.94376924	          0.88197404	         37.03789581	          0.88297480	         -9.64107723	        -19.38780075	         12.89379072	          3.26713616	          9.88720315	
          1.46784108	        -15.02391472	          1.95905719	          0.88110852	         36.29498367	          0.95390955	         -9.72864034	        -21.21327470	         12.33942545	          1.83926849	         10.01415575	
          1.47743481	        -14.96605615	          1.97440567	          0.88034239	         35.43198419	          1.11545964	        -10.04316041	        -23.18454979	         11.77021050	          0.37294133	         10.14869837	
          1.48702854	        -14.91889832	          1.98947394	          0.87990525	         34.57410467	          1.39447587	        -10.32367413	        -25.20918580	         11.22008860	         -0.91035884	         10.26758761	
          1.49662228	        -14.89100179	          2.00401489	          0.88005893	         33.75858339	          1.81922392	        -10.58230842	        -27.14697633	         10.68893775	         -1.91262161	         10.35690988	
          1.50621601	        -14.88470497	          2.01796557	          0.88095921	         32.98786396	          2.38560742	        -10.81392304	        -28.93529280	         10.19141350	         -2.66319916	         10.41552408	
          1.51580974	        -14.89531632	          2.03140927	          0.88256520	         32.24340936	          3.07683918	        -11.00651649	        -30.59486337	          9.74380386	         -3.17153236	         10.44957269	
          1.52540348	        -14.91624420	          2.04447024	          0.88466705	         31.50409564	          3.87237662	        -11.15115410	        -32.15479508	          9.35759723	         -3.45036979	         10.46608005	
          1.53499721	        -14.94212533	          2.05725593	          0.88703209	         30.75311378	          4.75666714	        -11.24100986	        -33.63266331	          9.03906488	         -3.51526743	         10.47035776	
          1.54459094	        -14.96952161	          2.06984060	          0.88947760	         29.98101705	          5.71768633	        -11.27416239	        -35.03692827	          8.78982246	         -3.38124807	         10.46559876	
          1.55418467	        -14.99653923	          2.08227121	          0.89187998	         29.18327691	          6.74642921	        -11.25104410	        -36.36891488	          8.60884098	         -3.06461293	         10.45355949	
          1.56377841	        -15.02221672	          2.09457781	          0.89416001	         28.35834561	          7.83549618	        -11.17365804	        -37.62552702	          8.49347794	         -2.58209564	         10.43525000	
          1.57337214	        -15.04606443	          2.10678071	          0.89626730	         27.50659934	          8.97871075	        -11.04548600	        -38.80188182	          8.43998678	         -1.95055637	         10.41128567	
          1.58296587	        -15.06781471	          2.11889499	          0.89816943	         26.62968913	         10.17051796	        -10.87138307	        -39.89188921	          8.44382031	         -1.18693838	         10.38211850	
          1.59255960	        -15.08729544	          2.13093306	          0.89984545	         25.73021438	         11.40556582	        -10.65738258	        -40.88876209	          8.49983304	         -0.30840811	         10.34815474	
          1.60215334	        -15.10438248	          2.14290583	          0.90128272	         24.81148113	         12.67842482	        -10.41051414	        -41.78533689	          8.60244298	          0.66764390	         10.30981188	
          1.61174707	        -15.11898734	          2.15482279	          0.90247636	         23.87747206	         13.98373357	        -10.13880122	        -42.57402406	          8.74583505	          1.72365486	         10.26748041	
          1.62134080	        -15.13109641	          2.16669154	          0.90342966	         22.93261170	         15.31648429	         -9.85002175	        -43.24664102	          8.92413945	          2.84196191	         10.22148032	
          1.63093453	        -15.14083468	          2.17851940	          0.90415324	         21.98078755	         16.67068487	         -9.55122783	        -43.79567682	          9.13085377	          4.00475834	         10.17228971	
          1.64052827	        -15.14836427	          2.19031258	          0.90466410	         21.02618946	         18.04052310	         -9.25000373	        -44.21344132	          9.35829625	          5.19420326	         10.12033412	
          1.65012200	        -15.15382688	          2.20207663	          0.90498300	         20.07338751	         19.42050664	         -8.95419651	        -44.49212142	          9.59843070	          6.39248060	         10.06595607	
          1.65971573	        -15.15736861	          2.21381751	          0.90513137	         19.12718332	         20.80413943	         -8.67218669	        -44.62477679	          9.84332104	          7.58179737	         10.00953514	
          1.66930946	        -15.15920973	          2.22554229	          0.90512950	         18.19081314	         22.18451320	         -8.40959211	        -44.60575521	         10.08564523	          8.74448455	          9.95160347	
          1.67890320	        -15.15966713	          2.23725929	          0.90499547	         17.26508456	         23.55474144	         -8.16768579	        -44.43100395	         10.31876963	          9.86317539	          9.89290284	
          1.68849693	        -15.15902273	          2.24897731	          0.90474480	         16.35140700	         24.90690280	         -7.94928737	        -44.09857387	         10.53590570	         10.92112937	          9.83417094	
          1.69809066	        -15.15752141	          2.26070452	          0.90439057	         15.45192827	         26.23306004	         -7.75799322	        -43.60745435	         10.73098014	         11.90290367	          9.77602498	
          1.70768439	        -15.15540466	          2.27244998	          0.90394347	         14.56821816	         27.52441166	         -7.59680897	        -42.96067456	         10.89936529	         12.79509694	          9.71919932	
          1.71727813	        -15.15292977	          2.28422219	          0.90341256	         13.70121605	         28.77289401	         -7.46782913	        -42.16285135	         11.03809979	         13.58747105	          9.66439065	
          1.72687186	        -15.15036049	          2.29602770	          0.90280592	         12.85179602	         29.97237962	         -7.37212008	        -41.21823956	         11.14605139	         14.27394469	          9.61207722	
          1.73646559	        -15.14793597	          2.30787281	          0.90213004	         12.02065609	         31.11714782	         -7.31133222	        -40.13356383	         11.22394606	         14.85291508	          9.56270253	
          1.74605932	        -15.14587764	          2.31976192	          0.90139026	         11.20811785	         32.20423330	         -7.28638803	        -38.91435117	         11.27459799	         15.32720330	          9.51645812	
          1.75565306	        -15.14439716	          2.33169861	          0.90059035	         10.41407422	         33.23228832	         -7.29768910	        -37.56558235	         11.30246421	         15.70308557	          9.47340797	
